<svg width="1143" height="323" viewBox="0 0 1143 323" fill="none" xmlns="http://www.w3.org/2000/svg">
<path opacity="0.4" d="M141.819 132.308C141.819 130.783 142.157 129.521 142.831 128.524C143.535 127.527 144.547 126.427 145.867 125.224C146.835 124.344 147.539 123.611 147.979 123.024C148.449 122.408 148.683 121.719 148.683 120.956C148.683 119.871 148.243 119.02 147.363 118.404C146.513 117.759 145.369 117.436 143.931 117.436C142.553 117.436 141.321 117.729 140.235 118.316C139.179 118.873 138.285 119.665 137.551 120.692L132.227 117.568C133.459 115.691 135.117 114.239 137.199 113.212C139.311 112.185 141.805 111.672 144.679 111.672C148.053 111.672 150.751 112.391 152.775 113.828C154.829 115.265 155.855 117.26 155.855 119.812C155.855 121.015 155.65 122.071 155.239 122.98C154.858 123.889 154.374 124.667 153.787 125.312C153.23 125.928 152.497 126.647 151.587 127.468C150.502 128.436 149.71 129.257 149.211 129.932C148.713 130.577 148.463 131.369 148.463 132.308H141.819ZM145.163 143.352C143.961 143.352 142.949 142.971 142.127 142.208C141.335 141.416 140.939 140.463 140.939 139.348C140.939 138.233 141.335 137.309 142.127 136.576C142.919 135.813 143.931 135.432 145.163 135.432C146.395 135.432 147.407 135.813 148.199 136.576C148.991 137.309 149.387 138.233 149.387 139.348C149.387 140.463 148.977 141.416 148.155 142.208C147.363 142.971 146.366 143.352 145.163 143.352ZM158.298 112.2H166.482L165.118 132.308H159.662L158.298 112.2ZM162.39 143.352C161.187 143.352 160.175 142.971 159.354 142.208C158.562 141.416 158.166 140.463 158.166 139.348C158.166 138.233 158.562 137.309 159.354 136.576C160.146 135.813 161.158 135.432 162.39 135.432C163.622 135.432 164.634 135.813 165.426 136.576C166.218 137.309 166.614 138.233 166.614 139.348C166.614 140.463 166.203 141.416 165.382 142.208C164.59 142.971 163.592 143.352 162.39 143.352Z" fill="white"/>
<path opacity="0.3" d="M871.765 43.606C870.352 44.1788 869.056 44.3398 867.878 44.0891C866.69 43.8111 865.29 43.2863 863.68 42.5146C862.501 41.9479 861.557 41.5708 860.848 41.3833C860.101 41.1797 859.374 41.2211 858.667 41.5075C857.661 41.915 857.038 42.6423 856.797 43.6892C856.519 44.72 856.649 45.9014 857.189 47.2335C857.707 48.5113 858.441 49.543 859.392 50.3286C860.306 51.098 861.376 51.6297 862.602 51.9238L861.706 58.0313C859.504 57.5945 857.536 56.6038 855.802 55.0591C854.057 53.4872 852.645 51.3692 851.566 48.7049C850.299 45.5785 849.952 42.8074 850.524 40.3918C851.085 37.949 852.548 36.2484 854.913 35.29C856.028 34.8384 857.083 34.6321 858.08 34.6712C859.066 34.6832 859.969 34.8398 860.787 35.1412C861.567 35.4264 862.509 35.8362 863.611 36.3705C864.916 37.0129 865.975 37.4385 866.787 37.6473C867.573 37.8671 868.4 37.8008 869.27 37.4483L871.765 43.606ZM880.745 36.3593C881.197 37.4739 881.224 38.5551 880.825 39.6027C880.389 40.6341 879.654 41.3592 878.621 41.7778C877.588 42.1964 876.582 42.1764 875.605 41.7177C874.601 41.2701 873.868 40.4754 873.405 39.3335C872.942 38.1917 872.916 37.1106 873.325 36.0901C873.707 35.0807 874.415 34.3667 875.448 33.9481C876.481 33.5295 877.519 33.5521 878.561 34.0159C879.566 34.4635 880.294 35.2446 880.745 36.3593ZM846.941 35.8851L843.868 28.3001L863.016 22.013L865.065 27.0696L846.941 35.8851ZM874.276 20.3938C874.728 21.5085 874.754 22.5896 874.356 23.6372C873.919 24.6687 873.185 25.3937 872.152 25.8123C871.118 26.2309 870.113 26.2109 869.136 25.7523C868.132 25.3047 867.399 24.5099 866.936 23.3681C866.473 22.2263 866.447 21.1451 866.856 20.1247C867.238 19.1153 867.946 18.4013 868.979 17.9827C870.012 17.5641 871.05 17.5867 872.092 18.0505C873.097 18.4981 873.825 19.2792 874.276 20.3938Z" fill="white"/>
<path opacity="0.455884" d="M992.141 105.895C991.005 106.912 989.84 107.502 988.647 107.665C987.434 107.805 985.94 107.785 984.163 107.603C982.862 107.469 981.846 107.433 981.115 107.497C980.343 107.558 979.673 107.843 979.105 108.352C978.296 109.075 977.956 109.971 978.084 111.037C978.17 112.101 978.693 113.169 979.651 114.24C980.571 115.267 981.611 115.99 982.772 116.407C983.892 116.822 985.079 116.961 986.333 116.822L987.556 122.873C985.335 123.207 983.148 122.94 980.994 122.073C978.82 121.184 976.775 119.669 974.858 117.527C972.608 115.013 971.344 112.523 971.065 110.057C970.766 107.568 971.568 105.473 973.469 103.771C974.365 102.968 975.289 102.417 976.241 102.117C977.172 101.794 978.074 101.637 978.947 101.643C979.777 101.648 980.802 101.715 982.02 101.845C983.465 102.008 984.606 102.05 985.441 101.972C986.254 101.913 987.011 101.57 987.71 100.944L992.141 105.895ZM998.14 96.0376C998.942 96.9337 999.333 97.9421 999.313 99.0628C999.251 100.181 998.804 101.112 997.974 101.855C997.143 102.599 996.191 102.92 995.116 102.819C994.02 102.737 993.06 102.238 992.239 101.32C991.417 100.402 991.026 99.3934 991.066 98.2946C991.085 97.2154 991.509 96.3041 992.34 95.5607C993.17 94.8173 994.154 94.4874 995.292 94.5712C996.389 94.6527 997.338 95.1415 998.14 96.0376ZM966.169 107.028L960.71 100.93L976.603 88.5351L980.242 92.6004L966.169 107.028ZM986.651 83.2021C987.453 84.0982 987.844 85.1066 987.824 86.2272C987.762 87.3456 987.316 88.2765 986.485 89.0199C985.654 89.7633 984.702 90.0845 983.627 89.9834C982.531 89.902 981.572 89.4022 980.75 88.4842C979.928 87.5663 979.537 86.5579 979.578 85.4591C979.596 84.3799 980.02 83.4686 980.851 82.7252C981.681 81.9817 982.665 81.6519 983.803 81.7357C984.9 81.8172 985.849 82.306 986.651 83.2021Z" fill="white"/>
<path opacity="0.0118842" d="M372.511 26.2761C373.408 27.5101 373.876 28.7288 373.917 29.9322C373.933 31.1529 373.761 32.6376 373.4 34.3865C373.134 35.6674 372.996 36.6745 372.985 37.4077C372.967 38.182 373.182 38.8776 373.631 39.4946C374.269 40.3726 375.125 40.8022 376.199 40.7833C377.266 40.8054 378.381 40.394 379.544 39.5491C380.659 38.7387 381.484 37.7773 382.017 36.6647C382.544 35.5931 382.802 34.4265 382.792 33.1648L388.935 32.5628C389.042 34.8057 388.555 36.9546 387.473 39.0093C386.368 41.0813 384.653 42.9622 382.327 44.6519C379.598 46.6347 376.992 47.6396 374.51 47.6665C372.004 47.7106 370.001 46.7004 368.501 44.6358C367.794 43.6628 367.339 42.6878 367.137 41.7107C366.911 40.7509 366.846 39.8376 366.941 38.9706C367.03 38.1447 367.201 37.1322 367.454 35.9333C367.763 34.5122 367.921 33.3822 367.927 32.5433C367.952 31.7281 367.688 30.9408 367.136 30.1814L372.511 26.2761ZM363.314 19.307C364.287 18.6 365.33 18.3137 366.443 18.4479C367.549 18.6231 368.43 19.1616 369.085 20.0634C369.74 20.9652 369.963 21.9455 369.753 23.0043C369.561 24.0868 368.966 24.9902 367.969 25.7143C366.973 26.4385 365.93 26.7248 364.841 26.5734C363.769 26.4456 362.906 25.9309 362.25 25.0291C361.595 24.1273 361.367 23.1147 361.566 21.9912C361.758 20.9086 362.341 20.0139 363.314 19.307ZM370.999 52.2295L364.378 57.04L353.662 39.9707L358.076 36.7637L370.999 52.2295ZM349.378 29.4325C350.351 28.7256 351.394 28.4392 352.506 28.5734C353.613 28.7486 354.493 29.2871 355.149 30.1889C355.804 31.0907 356.027 32.071 355.817 33.1298C355.624 34.2123 355.03 35.1157 354.033 35.8398C353.036 36.564 351.994 36.8504 350.905 36.6989C349.833 36.5711 348.969 36.0564 348.314 35.1546C347.659 34.2528 347.431 33.2402 347.63 32.1167C347.822 31.0341 348.405 30.1394 349.378 29.4325Z" fill="white"/>
<path opacity="0.177814" d="M872.366 292.213C873.684 291.447 874.944 291.105 876.146 291.187C877.362 291.294 878.821 291.616 880.525 292.153C881.772 292.548 882.76 292.788 883.488 292.873C884.256 292.969 884.97 292.826 885.63 292.442C886.568 291.897 887.082 291.089 887.173 290.019C887.303 288.959 887.007 287.808 886.285 286.565C885.592 285.373 884.719 284.456 883.666 283.812C882.654 283.179 881.519 282.804 880.263 282.686L880.288 276.513C882.531 276.635 884.619 277.338 886.553 278.622C888.502 279.932 890.199 281.83 891.644 284.315C893.339 287.231 894.074 289.926 893.849 292.398C893.638 294.895 892.429 296.785 890.223 298.068C889.183 298.672 888.167 299.026 887.175 299.128C886.197 299.255 885.282 299.227 884.429 299.044C883.616 298.872 882.626 298.599 881.459 298.226C880.077 297.774 878.969 297.502 878.135 297.41C877.326 297.303 876.516 297.486 875.705 297.957L872.366 292.213ZM864.498 300.655C863.894 299.615 863.715 298.549 863.962 297.455C864.248 296.372 864.874 295.551 865.837 294.991C866.801 294.431 867.799 294.309 868.831 294.625C869.888 294.926 870.726 295.609 871.346 296.675C871.965 297.74 872.144 298.806 871.882 299.874C871.646 300.927 871.047 301.734 870.083 302.294C869.119 302.855 868.089 302.979 866.991 302.667C865.934 302.365 865.103 301.695 864.498 300.655ZM898.031 296.354L902.144 303.429L884.075 312.356L881.333 307.639L898.031 296.354ZM873.156 315.548C872.551 314.508 872.373 313.441 872.619 312.348C872.906 311.265 873.531 310.444 874.495 309.884C875.458 309.323 876.456 309.201 877.488 309.517C878.546 309.819 879.384 310.502 880.003 311.567C880.622 312.632 880.801 313.699 880.54 314.767C880.304 315.82 879.704 316.627 878.74 317.187C877.777 317.747 876.746 317.871 875.649 317.559C874.591 317.258 873.76 316.587 873.156 315.548Z" fill="white"/>
<path opacity="0.241714" d="M1067.94 241.518C1067.55 242.994 1066.91 244.128 1066 244.921C1065.07 245.707 1063.81 246.515 1062.23 247.343C1061.07 247.948 1060.2 248.479 1059.63 248.935C1059.02 249.411 1058.61 250.019 1058.42 250.756C1058.14 251.806 1058.35 252.74 1059.05 253.56C1059.71 254.4 1060.73 255.002 1062.12 255.367C1063.46 255.717 1064.72 255.746 1065.92 255.454C1067.08 255.183 1068.15 254.644 1069.12 253.837L1073.48 258.21C1071.81 259.713 1069.84 260.697 1067.56 261.162C1065.26 261.618 1062.72 261.482 1059.94 260.752C1056.67 259.896 1054.25 258.516 1052.65 256.612C1051.03 254.701 1050.54 252.511 1051.19 250.042C1051.5 248.879 1051.96 247.91 1052.59 247.134C1053.19 246.352 1053.86 245.723 1054.59 245.247C1055.28 244.793 1056.18 244.284 1057.26 243.72C1058.56 243.06 1059.53 242.466 1060.19 241.94C1060.83 241.443 1061.28 240.74 1061.51 239.832L1067.94 241.518ZM1067.51 229.987C1068.67 230.292 1069.55 230.918 1070.16 231.864C1070.72 232.831 1070.86 233.854 1070.58 234.932C1070.3 236.01 1069.68 236.804 1068.73 237.312C1067.77 237.848 1066.69 237.96 1065.5 237.648C1064.31 237.335 1063.42 236.709 1062.85 235.771C1062.27 234.86 1062.12 233.866 1062.41 232.788C1062.69 231.71 1063.33 230.892 1064.32 230.334C1065.28 229.798 1066.35 229.682 1067.51 229.987ZM1046.9 256.785L1038.98 254.708L1045.4 235.605L1050.68 236.989L1046.9 256.785ZM1050.85 225.615C1052.01 225.92 1052.89 226.546 1053.49 227.492C1054.06 228.459 1054.2 229.482 1053.92 230.56C1053.63 231.638 1053.02 232.431 1052.06 232.939C1051.1 233.476 1050.03 233.588 1048.84 233.275C1047.64 232.963 1046.76 232.337 1046.19 231.398C1045.61 230.488 1045.46 229.494 1045.74 228.415C1046.03 227.337 1046.67 226.519 1047.66 225.962C1048.62 225.425 1049.68 225.309 1050.85 225.615Z" fill="white"/>
<path opacity="0.442372" d="M292.333 21.1909C293.691 20.4954 294.967 20.2205 296.162 20.3662C297.371 20.538 298.812 20.9371 300.484 21.5635C301.708 22.0238 302.682 22.316 303.405 22.4401C304.167 22.5769 304.888 22.4714 305.566 22.1237C306.532 21.6288 307.089 20.8493 307.236 19.7852C307.422 18.7339 307.188 17.5686 306.532 16.2894C305.904 15.0624 305.081 14.0997 304.064 13.4012C303.086 12.7155 301.974 12.2804 300.725 12.0959L301.078 5.93308C303.311 6.17355 305.359 6.9865 307.222 8.37194C309.099 9.78348 310.693 11.7685 312.003 14.3269C313.541 17.3292 314.132 20.0587 313.776 22.5154C313.433 24.9982 312.126 26.8215 309.855 27.9851C308.784 28.5335 307.751 28.8322 306.754 28.8814C305.771 28.9566 304.859 28.8803 304.017 28.6524C303.214 28.4373 302.24 28.1123 301.095 27.6775C299.738 27.1529 298.646 26.8226 297.818 26.6864C297.017 26.5368 296.198 26.676 295.363 27.104L292.333 21.1909ZM284.029 29.2028C283.481 28.1324 283.359 27.0579 283.663 25.9791C284.007 24.9131 284.674 24.126 285.666 23.6177C286.659 23.1095 287.661 23.0406 288.675 23.4111C289.715 23.7682 290.516 24.495 291.078 25.5915C291.639 26.688 291.762 27.7625 291.444 28.8152C291.152 29.8544 290.511 30.6282 289.518 31.1364C288.526 31.6447 287.491 31.7139 286.411 31.344C285.371 30.9869 284.577 30.2731 284.029 29.2028ZM317.743 26.6879L321.475 33.9716L302.957 41.9263L300.469 37.0705L317.743 26.6879ZM291.884 44.5341C291.335 43.4637 291.213 42.3892 291.517 41.3104C291.861 40.2444 292.529 39.4573 293.521 38.949C294.513 38.4408 295.516 38.3719 296.53 38.7424C297.57 39.0995 298.371 39.8263 298.932 40.9228C299.494 42.0193 299.616 43.0938 299.299 44.1465C299.007 45.1857 298.365 45.9595 297.373 46.4677C296.381 46.976 295.345 47.0452 294.266 46.6753C293.226 46.3182 292.432 45.6045 291.884 44.5341Z" fill="white"/>
<path opacity="0.537255" d="M31.3949 49.6703C31.1397 51.1741 30.596 52.3612 29.764 53.2316C28.903 54.0971 27.7212 55.0122 26.2186 55.9771C25.117 56.6827 24.3002 57.2879 23.7683 57.7927C23.2025 58.3214 22.8558 58.9618 22.7282 59.7137C22.5466 60.7837 22.838 61.696 23.6025 62.4506C24.3332 63.2292 25.4071 63.7387 26.8242 63.9792C28.1834 64.2099 29.4471 64.1268 30.6153 63.7301C31.7497 63.3573 32.7643 62.7261 33.6591 61.8367L38.3853 65.8075C36.8565 67.4522 34.9796 68.6064 32.7545 69.2701C30.5005 69.9289 27.9564 70.0178 25.1223 69.5368C21.7965 68.9723 19.2561 67.8122 17.5012 66.0565C15.7173 64.2959 15.0388 62.1575 15.4659 59.6415C15.6671 58.4558 16.0462 57.449 16.6033 56.6212C17.1314 55.7885 17.7386 55.1032 18.425 54.5651C19.0775 54.051 19.9208 53.4652 20.9547 52.8076C22.1867 52.0348 23.105 51.3576 23.7095 50.7759C24.3091 50.2231 24.6875 49.484 24.8446 48.5586L31.3949 49.6703ZM29.946 38.2224C31.1317 38.4237 32.0656 38.969 32.7478 39.8583C33.3961 40.7717 33.627 41.7778 33.4405 42.8768C33.2539 43.9757 32.7089 44.8204 31.8054 45.4109C30.8969 46.0303 29.8354 46.2369 28.6208 46.0308C27.4061 45.8246 26.4722 45.2793 25.819 44.3949C25.1608 43.5394 24.925 42.5622 25.1116 41.4632C25.2981 40.3642 25.8625 39.4931 26.8047 38.8497C27.7132 38.2303 28.7603 38.0212 29.946 38.2224ZM11.7843 66.7375L3.71571 65.3681L8.42507 45.7719L13.8041 46.6848L11.7843 66.7375ZM12.9626 35.34C14.1483 35.5413 15.0822 36.0866 15.7643 36.9759C16.4126 37.8893 16.6435 38.8954 16.457 39.9944C16.2705 41.0933 15.7255 41.938 14.822 42.5285C13.9135 43.1479 12.852 43.3545 11.6373 43.1484C10.4227 42.9422 9.48878 42.3969 8.83556 41.5125C8.17743 40.657 7.94162 39.6797 8.12814 38.5808C8.31465 37.4818 8.87904 36.6107 9.82132 35.9673C10.7298 35.3479 11.7768 35.1388 12.9626 35.34Z" fill="white"/>
<path opacity="0.132913" d="M26.6431 214.21C26.5622 215.733 26.1584 216.974 25.4318 217.934C24.6759 218.893 23.6069 219.938 22.225 221.069C21.2117 221.896 20.4698 222.591 19.9993 223.154C19.4979 223.744 19.227 224.42 19.1865 225.181C19.129 226.265 19.5232 227.138 20.3693 227.8C21.1845 228.489 22.3098 228.872 23.7451 228.949C25.1218 229.022 26.3676 228.794 27.4826 228.266C28.5667 227.765 29.5021 227.022 30.2888 226.036L35.4396 229.438C34.1097 231.247 32.3777 232.609 30.2435 233.524C28.08 234.437 25.563 234.817 22.6923 234.665C19.3238 234.486 16.667 233.625 14.7221 232.082C12.7479 230.538 11.8285 228.492 11.9639 225.943C12.0277 224.742 12.2888 223.699 12.7471 222.812C13.1762 221.925 13.7007 221.174 14.3208 220.561C14.91 219.975 15.6805 219.296 16.6321 218.524C17.7673 217.615 18.6017 216.837 19.1355 216.19C19.6677 215.572 19.9587 214.794 20.0085 213.857L26.6431 214.21ZM23.8898 203.004C25.0907 203.067 26.0811 203.502 26.8608 204.307C27.6097 205.14 27.9545 206.113 27.8954 207.226C27.8362 208.339 27.3918 209.241 26.562 209.931C25.7306 210.651 24.6998 210.978 23.4696 210.912C22.2393 210.847 21.249 210.413 20.4985 209.609C19.7466 208.835 19.4001 207.891 19.4593 206.778C19.5184 205.665 19.9791 204.735 20.8413 203.987C21.6726 203.268 22.6888 202.94 23.8898 203.004ZM9.12125 233.415L0.948779 232.981L3.37766 212.973L8.82597 213.263L9.12125 233.415ZM6.68774 202.09C7.88871 202.154 8.87906 202.588 9.65877 203.393C10.4076 204.226 10.7525 205.199 10.6934 206.312C10.6342 207.425 10.1898 208.327 9.35997 209.017C8.52863 209.737 7.49782 210.064 6.26755 209.999C5.03729 209.933 4.04695 209.499 3.29652 208.695C2.54454 207.921 2.19812 206.977 2.25726 205.864C2.3164 204.751 2.77706 203.821 3.63926 203.073C4.47061 202.354 5.48677 202.026 6.68774 202.09Z" fill="white"/>
<path opacity="0.132913" d="M1110.85 75.0366C1111.24 73.5633 1111.9 72.4322 1112.81 71.6435C1113.74 70.8624 1115.01 70.0618 1116.59 69.2417C1117.76 68.6423 1118.63 68.1161 1119.2 67.6633C1119.82 67.1898 1120.22 66.5847 1120.42 65.848C1120.7 64.7996 1120.49 63.8641 1119.8 63.0413C1119.15 62.1978 1118.13 61.59 1116.74 61.218C1115.41 60.8612 1114.14 60.8257 1112.94 61.1114C1111.78 61.3765 1110.71 61.9099 1109.73 62.7118L1105.4 58.3163C1107.08 56.8218 1109.05 55.8482 1111.33 55.3956C1113.64 54.9505 1116.18 55.1 1118.95 55.844C1122.21 56.7171 1124.63 58.1098 1126.22 60.022C1127.83 61.9418 1128.3 64.1342 1127.64 66.5992C1127.33 67.7609 1126.86 68.7278 1126.23 69.4998C1125.62 70.2795 1124.95 70.9051 1124.22 71.3766C1123.52 71.8273 1122.63 72.3317 1121.54 72.8897C1120.24 73.5438 1119.26 74.1322 1118.61 74.6548C1117.96 75.1491 1117.51 75.8496 1117.27 76.7562L1110.85 75.0366ZM1111.22 86.5698C1110.06 86.2586 1109.18 85.6283 1108.59 84.679C1108.03 83.709 1107.89 82.6857 1108.18 81.609C1108.47 80.5323 1109.09 79.7423 1110.04 79.2389C1111.01 78.7072 1112.08 78.6008 1113.27 78.9197C1114.46 79.2386 1115.34 79.8688 1115.91 80.8105C1116.48 81.7238 1116.63 82.7188 1116.34 83.7955C1116.05 84.8722 1115.41 85.6868 1114.41 86.2392C1113.45 86.7709 1112.38 86.8811 1111.22 86.5698ZM1131.97 59.8787L1139.88 61.9969L1133.35 81.0667L1128.08 79.6546L1131.97 59.8787ZM1127.86 91.0283C1126.7 90.717 1125.82 90.0868 1125.22 89.1375C1124.66 88.1675 1124.53 87.1442 1124.82 86.0675C1125.11 84.9908 1125.73 84.2008 1126.68 83.6974C1127.64 83.1657 1128.72 83.0593 1129.91 83.3782C1131.1 83.697 1131.98 84.3273 1132.55 85.269C1133.12 86.1823 1133.27 87.1773 1132.98 88.254C1132.69 89.3307 1132.05 90.1452 1131.05 90.6977C1130.08 91.2294 1129.02 91.3396 1127.86 91.0283Z" fill="white"/>
<path opacity="0.621009" d="M237.65 263.282C238.934 264.106 239.813 265.071 240.288 266.178C240.747 267.309 241.126 268.755 241.425 270.515C241.642 271.805 241.879 272.794 242.135 273.481C242.4 274.209 242.853 274.779 243.495 275.191C244.408 275.777 245.361 275.866 246.355 275.459C247.358 275.092 248.247 274.303 249.024 273.094C249.769 271.934 250.188 270.738 250.28 269.508C250.382 268.318 250.199 267.138 249.731 265.966L255.236 263.174C256.15 265.225 256.477 267.404 256.216 269.711C255.938 272.043 255.023 274.418 253.47 276.837C251.648 279.676 249.585 281.559 247.282 282.485C244.963 283.436 242.73 283.223 240.582 281.844C239.57 281.194 238.793 280.451 238.249 279.614C237.69 278.802 237.298 277.975 237.071 277.132C236.854 276.33 236.646 275.325 236.446 274.116C236.218 272.68 235.954 271.57 235.656 270.786C235.383 270.017 234.851 269.38 234.061 268.872L237.65 263.282ZM226.55 260.129C227.2 259.117 228.068 258.471 229.153 258.192C230.248 257.953 231.264 258.135 232.202 258.737C233.14 259.34 233.703 260.172 233.893 261.235C234.106 262.313 233.881 263.371 233.215 264.408C232.549 265.444 231.682 266.09 230.612 266.344C229.567 266.615 228.576 266.449 227.638 265.846C226.7 265.244 226.119 264.384 225.897 263.264C225.683 262.186 225.901 261.141 226.55 260.129ZM245.668 288.012L241.247 294.898L225.063 282.887L228.011 278.296L245.668 288.012ZM217.243 274.624C217.893 273.612 218.761 272.967 219.846 272.688C220.941 272.449 221.957 272.631 222.895 273.233C223.833 273.835 224.396 274.668 224.586 275.731C224.8 276.809 224.574 277.867 223.908 278.903C223.242 279.94 222.375 280.586 221.305 280.84C220.26 281.11 219.269 280.944 218.331 280.342C217.393 279.74 216.812 278.879 216.59 277.76C216.376 276.682 216.594 275.636 217.243 274.624Z" fill="white"/>
</svg>
