<svg width="32" height="118" viewBox="0 0 32 118" fill="none" xmlns="http://www.w3.org/2000/svg">
<path d="M16.0001 6.66675C15.2637 6.66675 14.6667 7.26371 14.6667 8.00008V13.3334C14.6667 14.0698 15.2637 14.6667 16.0001 14.6667C16.7365 14.6667 17.3334 14.0698 17.3334 13.3334V8.00008C17.3334 7.26371 16.7365 6.66675 16.0001 6.66675Z" fill="#6A80F5"/>
<path fill-rule="evenodd" clip-rule="evenodd" d="M5.33325 10.6667C5.33325 4.77563 10.1089 0 15.9999 0C21.891 0 26.6666 4.77563 26.6666 10.6667V21.3333C26.6666 27.2244 21.891 32 15.9999 32C10.1089 32 5.33325 27.2244 5.33325 21.3333V10.6667ZM23.9999 10.6667V21.3333C23.9999 25.7516 20.4182 29.3333 15.9999 29.3333C11.5816 29.3333 7.99992 25.7516 7.99992 21.3333V10.6667C7.99992 6.24839 11.5816 2.66667 15.9999 2.66667C20.4182 2.66667 23.9999 6.24839 23.9999 10.6667Z" fill="#6A80F5"/>
<line x1="16.5" y1="118" x2="16.5" y2="32" stroke="url(#paint0_linear)" stroke-dasharray="4 4"/>
<defs>
<linearGradient id="paint0_linear" x1="17" y1="45.7685" x2="17" y2="118" gradientUnits="userSpaceOnUse">
<stop stop-color="#6A80F5"/>
<stop offset="1" stop-color="white"/>
</linearGradient>
</defs>
</svg>
