<svg width="12" height="20" viewBox="0 0 12 20" fill="none" xmlns="http://www.w3.org/2000/svg">
<path d="M1.59242 20C2.02465 20 2.39242 19.8521 2.69573 19.5563L11.4199 11.2479C11.6171 11.0556 11.7611 10.8596 11.8521 10.66C11.9431 10.4603 11.9924 10.2422 12 10.0055C12 9.53223 11.8066 9.1181 11.4199 8.76314L2.69574 0.443652C2.54408 0.303145 2.37725 0.194068 2.19526 0.116419C2.01327 0.0387708 1.81232 -5.34058e-05 1.59242 -5.34058e-05C1.29668 -5.34058e-05 1.02938 0.0683511 0.790521 0.20516C0.551659 0.341969 0.360189 0.528696 0.216114 0.765338C0.072038 1.00198 0 1.26081 0 1.54183C0 1.97074 0.166825 2.34789 0.500474 2.67327L8.74694 10.5047V9.52854L0.500474 17.3267C0.166825 17.652 0 18.0292 0 18.4581C0 18.7391 0.072038 18.9979 0.216114 19.2346C0.36019 19.4712 0.551659 19.658 0.790521 19.7948C1.02938 19.9316 1.29668 20 1.59242 20L1.59242 20Z" fill="#6A80F5"/>
</svg>
