<svg width="20" height="20" viewBox="0 0 20 20" fill="none" xmlns="http://www.w3.org/2000/svg">
<path d="M7.08325 1.66675C5.70254 1.66675 4.58325 2.78604 4.58325 4.16675C4.58325 5.54746 5.70254 6.66675 7.08325 6.66675H12.9166C14.2973 6.66675 15.4166 5.54746 15.4166 4.16675C15.4166 2.78604 14.2973 1.66675 12.9166 1.66675H7.08325Z" fill="currentColor"/>
<path d="M12.9167 7.5C11.536 7.5 10.4167 8.61925 10.4167 10C10.4167 11.3807 11.536 12.5 12.9167 12.5C14.2975 12.5 15.4168 11.3807 15.4168 10C15.4168 8.61925 14.2975 7.5 12.9167 7.5Z" fill="currentColor"/>
<path d="M4.58325 10C4.58325 8.61925 5.70254 7.5 7.08325 7.5H9.58325V12.5H7.08325C5.70254 12.5 4.58325 11.3807 4.58325 10Z" fill="currentColor"/>
<path d="M7.08325 13.3333C5.70254 13.3333 4.58325 14.4525 4.58325 15.8333C4.58325 17.214 5.70254 18.3332 7.08325 18.3332C8.464 18.3332 9.58325 17.214 9.58325 15.8333V13.3333H7.08325Z" fill="currentColor"/>
</svg>
