<svg width="20" height="20" viewBox="0 0 20 20" fill="none" xmlns="http://www.w3.org/2000/svg">
<path d="M10 0.25C4.5 0.25 0 4.71875 0 10.25C0 14.6562 2.875 18.4062 6.84375 19.75C7.34375 19.8438 7.53125 19.5312 7.53125 19.2812C7.53125 19.0625 7.53125 18.4062 7.5 17.5625C4.71875 18.1875 4.125 16.2188 4.125 16.2188C3.65625 15.0625 3 14.7812 3 14.7812C2.09375 14.1562 3.0625 14.1562 3.0625 14.1562C4.0625 14.2188 4.59375 15.1875 4.59375 15.1875C5.46875 16.7188 6.9375 16.2812 7.5 16C7.59375 15.3438 7.84375 14.9063 8.125 14.6563C5.9375 14.4375 3.59375 13.5625 3.59375 9.75C3.59375 8.65625 4 7.78125 4.625 7.09375C4.53125 6.84375 4.1875 5.84375 4.71875 4.4375C4.71875 4.4375 5.5625 4.15625 7.46875 5.46875C8.28125 5.25 9.125 5.125 9.96875 5.125C10.8125 5.125 11.6875 5.21875 12.4688 5.46875C14.375 4.1875 15.1875 4.4375 15.1875 4.4375C15.7188 5.8125 15.4063 6.84375 15.2812 7.09375C15.9062 7.78125 16.3125 8.6875 16.3125 9.75C16.3125 13.5625 13.9687 14.4375 11.75 14.6563C12.0938 14.9688 12.4375 15.5938 12.4375 16.5C12.4375 17.8438 12.4062 18.9062 12.4062 19.2188C12.4062 19.5 12.5938 19.7812 13.0938 19.6875C17.125 18.375 20 14.625 20 10.2188C19.9688 4.71875 15.5 0.25 10 0.25Z" fill="currentColor"/>
</svg>
