<svg width="40" height="44" viewBox="0 0 40 44" fill="none" xmlns="http://www.w3.org/2000/svg">
<g clip-path="url(#clip0)">
<path d="M4.94141 43.6563C5.51433 43.6563 6.09799 43.5704 6.69239 43.3985C7.28679 43.2266 7.97787 42.9115 8.76563 42.4532L35.5351 26.8985C36.6237 26.2683 37.4974 25.5521 38.1562 24.75C38.8151 23.948 39.1445 22.974 39.1445 21.8282C39.1445 20.6823 38.8151 19.7119 38.1562 18.917C37.4974 18.1221 36.6237 17.4095 35.5351 16.7793L8.76563 1.20312C7.97787 0.759114 7.28679 0.447591 6.69239 0.268555C6.09799 0.089518 5.51433 0 4.94141 0C3.681 0 2.54232 0.465498 1.52539 1.39648C0.508464 2.32747 0 3.63802 0 5.32812V38.3281C0 40.0325 0.508464 41.3467 1.52539 42.2705C2.54232 43.1943 3.68099 43.6562 4.94141 43.6562V43.6563Z" fill="white"/>
</g>
<defs>
<clipPath id="clip0">
<rect width="39.1445" height="43.6562" fill="white"/>
</clipPath>
</defs>
</svg>
